<?xml version="1.0" encoding="UTF-8"?>
<svg xmlns="http://www.w3.org/2000/svg" width="600" height="180" viewBox="0 0 600 180">
  <defs>
    <linearGradient id="g" x1="0" y1="0" x2="1" y2="1">
      <stop offset="0" stop-color="#FF7A00" stop-opacity="0.22"/>
      <stop offset="1" stop-color="#002D5E" stop-opacity="0.12"/>
    </linearGradient>
    <filter id="s" x="-20%" y="-40%" width="140%" height="180%">
      <feDropShadow dx="0" dy="10" stdDeviation="10" flood-color="#000000" flood-opacity="0.12"/>
    </filter>
  </defs>

  <rect x="10" y="10" width="580" height="160" rx="28" fill="url(#g)" filter="url(#s)"/>
  <rect x="14" y="14" width="572" height="152" rx="24" fill="#F8FAFC" opacity="0.65"/>
  <rect x="14" y="154" width="572" height="12" rx="6" fill="#FF7A00" opacity="0.85"/>

  <rect x="22" y="30.0" width="110" height="110" rx="24" fill="#F8FAFC" opacity="0.9"/>
  <rect x="22" y="30.0" width="110" height="110" rx="24" fill="#002D5E" opacity="0.06"/>

  
      <g transform="translate(16,18)">
        <path d="M10 28l30-16 30 16v34c0 6-5 11-11 11H21c-6 0-11-5-11-11V28z"
              fill="#002D5E" opacity="0.16"/>
        <path d="M40 12v60" stroke="#002D5E" stroke-width="6" opacity="0.20"/>
        <rect x="18" y="44" width="44" height="26" rx="10" fill="#FF7A00" opacity="0.20"/>
        <circle cx="40" cy="57" r="7" fill="#FF7A00" opacity="0.85"/>
      </g>
    

  <text x="142" y="78" font-size="40" font-weight="700" font-family="Inter, Arial, sans-serif" fill="#0B1220">Cash à la livraison</text>
  <text x="142" y="108" font-size="22" font-family="Inter, Arial, sans-serif" fill="#475569">Paiement à réception</text>
</svg>
